<?xml version="1.0" encoding="utf-8"?>
<!-- Generator: Adobe Illustrator 28.0.0, SVG Export Plug-In . SVG Version: 6.00 Build 0)  -->
<svg version="1.1" id="圖層_1" xmlns="http://www.w3.org/2000/svg" xmlns:xlink="http://www.w3.org/1999/xlink" x="0px" y="0px"
	 viewBox="0 0 28.4 28.4" style="enable-background:new 0 0 28.4 28.4;" xml:space="preserve">
<style type="text/css">
	
		.st0{clip-path:url(#SVGID_00000168811661025708807440000017303005399854897298_);fill:url(#SVGID_00000047042177556986662810000000041030558800176297_);}
</style>
<g>
	<defs>
		<path id="SVGID_1_" d="M8.8,15.6c-1.4,0.5-2.7,1.3-3.5,2.5c-0.2,0.2-0.2,0.5-0.2,0.7v0v4.1c0,0.7,0.6,1.4,1.4,1.4h7.5h7.5
			c0.8,0,1.4-0.6,1.4-1.4v-4.1c0-0.3-0.1-0.6-0.2-0.8c-0.8-1.2-2-2-3.4-2.5c-1.6-0.6-3.5-0.8-5.1-0.8C12.3,14.8,10.4,15,8.8,15.6
			 M13.9,3.6C11.2,3.6,9,5.8,9,8.5s2.2,4.9,4.9,4.9s4.9-2.2,4.9-4.9S16.6,3.6,13.9,3.6z"/>
	</defs>
	<clipPath id="SVGID_00000071554529464799581350000014027905890040111549_">
		<use xlink:href="#SVGID_1_"  style="overflow:visible;"/>
	</clipPath>
	
		<linearGradient id="SVGID_00000039836636807685985740000009616863633781310385_" gradientUnits="userSpaceOnUse" x1="8.6856" y1="20.0659" x2="10.1993" y2="20.0659" gradientTransform="matrix(0 -13.6342 -13.6342 0 287.5062 142.7076)">
		<stop  offset="0" style="stop-color:#000000"/>
		<stop  offset="1" style="stop-color:#575858"/>
	</linearGradient>
	
		<rect x="5.1" y="3.6" style="clip-path:url(#SVGID_00000071554529464799581350000014027905890040111549_);fill:url(#SVGID_00000039836636807685985740000009616863633781310385_);" width="17.6" height="20.6"/>
</g>
</svg>
