<?xml version="1.0" encoding="utf-8"?>
<!-- Generator: Adobe Illustrator 28.0.0, SVG Export Plug-In . SVG Version: 6.00 Build 0)  -->
<svg version="1.1" id="lock" xmlns="http://www.w3.org/2000/svg" xmlns:xlink="http://www.w3.org/1999/xlink" x="0px" y="0px"
	 viewBox="0 0 32 32" style="enable-background:new 0 0 32 32;" xml:space="preserve">
<style type="text/css">
	
		.st0{clip-path:url(#SVGID_00000106130871476905900980000017931285768821572753_);fill:url(#SVGID_00000011003419827553125700000008182416188445086629_);}
</style>
<g>
	<defs>
		<path id="SVGID_1_" d="M14.4,25.5v-1.7c-0.9-0.4-1.5-1.3-1.5-2.3c0-1.4,1.1-2.5,2.5-2.5s2.5,1.1,2.5,2.5c0,1-0.6,1.9-1.5,2.3v1.7
			c0,0.6-0.5,1-1,1C14.9,26.5,14.4,26,14.4,25.5 M9.4,9c0-1.7,0.7-3.2,1.8-4.2C12.2,3.7,13.7,3,15.4,3c1.7,0,3.2,0.7,4.2,1.8
			c1.1,1.1,1.8,2.6,1.8,4.2v4h-12V9z M15.4,0C12.9,0,10.7,1,9,2.6C7.4,4.3,6.4,6.5,6.4,9v4c-1.6,0-3,1.3-3,3v13c0,1.7,1.4,3,3,3h18
			c1.7,0,3-1.4,3-3V16c0-1.6-1.3-3-3-3V9c0-2.5-1-4.7-2.6-6.4C20.1,1,17.9,0,15.4,0z"/>
	</defs>
	<clipPath id="SVGID_00000098921894288222366180000014265918162018314404_">
		<use xlink:href="#SVGID_1_"  style="overflow:visible;"/>
	</clipPath>
	
		<linearGradient id="SVGID_00000158729603734164246140000011986255031721567622_" gradientUnits="userSpaceOnUse" x1="10.3721" y1="23.0674" x2="12.6047" y2="23.0674" gradientTransform="matrix(0 -14.3325 -14.3325 0 346.0218 180.6575)">
		<stop  offset="0" style="stop-color:#000000"/>
		<stop  offset="1" style="stop-color:#575858"/>
	</linearGradient>
	
		<rect x="3.4" y="0" style="clip-path:url(#SVGID_00000098921894288222366180000014265918162018314404_);fill:url(#SVGID_00000158729603734164246140000011986255031721567622_);" width="24" height="32"/>
</g>
</svg>
