<?xml version="1.0" encoding="utf-8"?>
<!-- Generator: Adobe Illustrator 28.0.0, SVG Export Plug-In . SVG Version: 6.00 Build 0)  -->
<svg version="1.1" id="圖層_1" xmlns="http://www.w3.org/2000/svg" xmlns:xlink="http://www.w3.org/1999/xlink" x="0px" y="0px"
	 viewBox="0 0 14.8 18.4" style="enable-background:new 0 0 14.8 18.4;" xml:space="preserve">
<style type="text/css">
	.st0{fill-rule:evenodd;clip-rule:evenodd;fill:#7A0000;}
</style>
<g>
	<path class="st0" d="M6.3,6.5c0,0.1,0,0.1,0,0.2c0,0.5,0,1,0,1.4c0,0.5-0.2,0.7-0.7,0.8c-0.2,0-0.4,0-0.6-0.2
		C4.5,8.3,3.9,7.8,3.3,7.4c-1-0.8-2-1.5-3-2.3C0,4.9-0.1,4.5,0.1,4.1C0.1,4,0.3,3.9,0.4,3.8c1.6-1.2,3.1-2.4,4.7-3.6
		c0.4-0.3,0.8-0.3,1.1,0c0.1,0.2,0.2,0.4,0.2,0.6c0,0.5,0,0.9,0,1.4c0,0.1,0,0.1,0,0.2c0.1,0,0.1,0,0.2,0c0.6,0,1.1,0,1.7,0
		c0.9,0,1.8,0.3,2.7,0.7c1.7,0.8,2.9,2.1,3.7,3.8c0.1,0.2,0.2,0.4,0.2,0.6c0.1,0.2,0,0.4-0.2,0.6c-0.2,0.2-0.4,0.2-0.6,0.1
		c-0.5-0.2-1.1-0.5-1.6-0.7c-1.3-0.6-2.6-1-4-1C7.7,6.5,7,6.5,6.3,6.5z"/>
</g>
<g>
	<path class="st0" d="M8.5,11.9c0-0.1,0-0.1,0-0.2c0-0.5,0-1,0-1.4c0-0.5,0.2-0.7,0.7-0.8c0.2,0,0.4,0,0.6,0.2
		c0.6,0.5,1.2,0.9,1.8,1.3c1,0.8,2,1.5,3,2.3c0.3,0.3,0.5,0.7,0.3,1c-0.1,0.1-0.2,0.2-0.3,0.3c-1.6,1.2-3.1,2.4-4.7,3.6
		c-0.4,0.3-0.8,0.3-1.1,0c-0.1-0.2-0.2-0.4-0.2-0.6c0-0.5,0-0.9,0-1.4c0-0.1,0-0.1,0-0.2c-0.1,0-0.1,0-0.2,0c-0.6,0-1.1,0-1.7,0
		c-0.9,0-1.8-0.3-2.7-0.7c-1.7-0.8-2.9-2.1-3.7-3.8C0.2,11.2,0.1,11,0,10.8c-0.1-0.2,0-0.4,0.2-0.6C0.4,10,0.6,10,0.8,10.1
		c0.5,0.2,1.1,0.5,1.6,0.7c1.3,0.6,2.6,1,4,1C7.1,11.9,7.8,11.9,8.5,11.9z"/>
</g>
</svg>
